# This file uses centimeters as units for non-parametric coordinates.

g default
v 1.689618 -0.002474 -0.548990
v 1.437275 -0.002474 -1.044241
v 1.044241 -0.002474 -1.437274
v 0.548990 -0.002474 -1.689617
v 0.000000 -0.002474 -1.776569
v -0.548990 -0.002474 -1.689617
v -1.044241 -0.002474 -1.437274
v -1.437274 -0.002474 -1.044241
v -1.689617 -0.002474 -0.548990
v -1.776568 -0.002474 0.000000
v -1.689617 -0.002474 0.548990
v -1.437274 -0.002474 1.044241
v -1.044241 -0.002474 1.437274
v -0.548990 -0.002474 1.689617
v -0.000000 -0.002474 1.776568
v 0.548990 -0.002474 1.689617
v 1.044240 -0.002474 1.437274
v 1.437274 -0.002474 1.044240
v 1.689617 -0.002474 0.548990
v 1.776568 -0.002474 0.000000
v 0.000000 38.482421 0.000000
vt 0.250000 0.500000
vt 0.275000 0.500000
vt 0.300000 0.500000
vt 0.325000 0.500000
vt 0.350000 0.500000
vt 0.375000 0.500000
vt 0.400000 0.500000
vt 0.425000 0.500000
vt 0.450000 0.500000
vt 0.475000 0.500000
vt 0.500000 0.500000
vt 0.525000 0.500000
vt 0.550000 0.500000
vt 0.575000 0.500000
vt 0.600000 0.500000
vt 0.625000 0.500000
vt 0.650000 0.500000
vt 0.675000 0.500000
vt 0.700000 0.500000
vt 0.725000 0.500000
vt 0.750000 0.500000
vt 0.500000 1.000000
vn 0.950045 0.046114 -0.308687
vn 0.808156 0.046114 -0.587160
vn -0.000001 1.000000 -0.000000
vn 0.587160 0.046114 -0.808156
vn 0.308688 0.046114 -0.950045
vn -0.000000 0.046114 -0.998936
vn -0.308688 0.046114 -0.950045
vn -0.587160 0.046114 -0.808156
vn -0.808156 0.046114 -0.587160
vn -0.950045 0.046114 -0.308688
vn -0.998936 0.046114 0.000000
vn -0.950045 0.046114 0.308688
vn -0.808156 0.046114 0.587160
vn -0.587160 0.046114 0.808156
vn -0.308688 0.046114 0.950045
vn 0.000000 0.046114 0.998936
vn 0.308688 0.046114 0.950045
vn 0.587160 0.046114 0.808156
vn 0.808156 0.046114 0.587160
vn 0.950045 0.046114 0.308688
vn 0.998936 0.046114 0.000001
s 1
g pCone1
f 1/1/1 2/2/2 21/22/3
f 2/2/2 3/3/4 21/22/3
f 3/3/4 4/4/5 21/22/3
f 4/4/5 5/5/6 21/22/3
f 5/5/6 6/6/7 21/22/3
f 6/6/7 7/7/8 21/22/3
f 7/7/8 8/8/9 21/22/3
f 8/8/9 9/9/10 21/22/3
f 9/9/10 10/10/11 21/22/3
f 10/10/11 11/11/12 21/22/3
f 11/11/12 12/12/13 21/22/3
f 12/12/13 13/13/14 21/22/3
f 13/13/14 14/14/15 21/22/3
f 14/14/15 15/15/16 21/22/3
f 15/15/16 16/16/17 21/22/3
f 16/16/17 17/17/18 21/22/3
f 17/17/18 18/18/19 21/22/3
f 18/18/19 19/19/20 21/22/3
f 19/19/20 20/20/21 21/22/3
f 20/20/21 1/21/1 21/22/3
