# Blender v2.64 (sub 0) OBJ File: 'quit.blend'
# www.blender.org
o Icosphere
v 0.000000 -1.000000 0.000000
v 0.723607 -0.447220 0.525725
v -0.276388 -0.447220 0.850649
v -0.894426 -0.447216 0.000000
v -0.276388 -0.447220 -0.850649
v 0.723607 -0.447220 -0.525725
v 0.276388 0.447220 0.850649
v -0.723607 0.447220 0.525725
v -0.723607 0.447220 -0.525725
v 0.276388 0.447220 -0.850649
v 0.894426 0.447216 0.000000
v 0.000000 1.000000 0.000000
v 0.425323 -0.850654 0.309011
v 0.262869 -0.525738 0.809012
v -0.162456 -0.850654 0.499995
v 0.425323 -0.850654 -0.309011
v 0.850648 -0.525736 0.000000
v -0.688189 -0.525736 0.499997
v -0.525730 -0.850652 0.000000
v -0.688189 -0.525736 -0.499997
v -0.162456 -0.850654 -0.499995
v 0.262869 -0.525738 -0.809012
v 0.951058 0.000000 -0.309013
v 0.951058 0.000000 0.309013
v 0.587786 0.000000 0.809017
v 0.000000 0.000000 1.000000
v -0.587786 0.000000 0.809017
v -0.951058 0.000000 0.309013
v -0.951058 0.000000 -0.309013
v -0.587786 0.000000 -0.809017
v 0.000000 0.000000 -1.000000
v 0.587786 0.000000 -0.809017
v 0.688189 0.525736 0.499997
v -0.262869 0.525738 0.809012
v -0.850648 0.525736 0.000000
v -0.262869 0.525738 -0.809012
v 0.688189 0.525736 -0.499997
v 0.525730 0.850652 0.000000
v 0.162456 0.850654 0.499995
v -0.425323 0.850654 0.309011
v -0.425323 0.850654 -0.309011
v 0.162456 0.850654 -0.499995
vn 0.000000 -1.000000 0.000000
vn 0.425306 -0.850642 0.309000
vn -0.162450 -0.850642 0.499985
vn 0.723594 -0.447188 0.525712
vn 0.850642 -0.525712 0.000000
vn -0.525712 -0.850642 0.000000
vn -0.162450 -0.850642 -0.499985
vn 0.425306 -0.850642 -0.309000
vn 0.951048 0.000000 0.309000
vn -0.276376 -0.447218 0.850642
vn 0.262856 -0.525712 0.808985
vn 0.000000 0.000000 1.000000
vn -0.894406 -0.447188 0.000000
vn -0.688162 -0.525712 0.499985
vn -0.951048 0.000000 0.309000
vn -0.276376 -0.447218 -0.850642
vn -0.688162 -0.525712 -0.499985
vn -0.587756 0.000000 -0.809015
vn 0.723594 -0.447188 -0.525712
vn 0.262856 -0.525712 -0.808985
vn 0.587756 0.000000 -0.809015
vn 0.587756 0.000000 0.809015
vn -0.587756 0.000000 0.809015
vn -0.951048 0.000000 -0.309000
vn 0.000000 0.000000 -1.000000
vn 0.951048 0.000000 -0.309000
vn 0.276376 0.447218 0.850642
vn 0.688162 0.525712 0.499985
vn 0.162450 0.850642 0.499985
vn -0.723594 0.447188 0.525712
vn -0.262856 0.525712 0.808985
vn -0.425306 0.850642 0.309000
vn -0.723594 0.447188 -0.525712
vn -0.850642 0.525712 0.000000
vn -0.425306 0.850642 -0.309000
vn 0.276376 0.447218 -0.850642
vn -0.262856 0.525712 -0.808985
vn 0.162450 0.850642 -0.499985
vn 0.894406 0.447188 0.000000
vn 0.688162 0.525712 -0.499985
vn 0.525712 0.850642 0.000000
vn 0.000000 1.000000 0.000000
s 1
f 1//1 13//2 15//3
f 2//4 13//2 17//5
f 1//1 15//3 19//6
f 1//1 19//6 21//7
f 1//1 21//7 16//8
f 2//4 17//5 24//9
f 3//10 14//11 26//12
f 4//13 18//14 28//15
f 5//16 20//17 30//18
f 6//19 22//20 32//21
f 2//4 24//9 25//22
f 3//10 26//12 27//23
f 4//13 28//15 29//24
f 5//16 30//18 31//25
f 6//19 32//21 23//26
f 7//27 33//28 39//29
f 8//30 34//31 40//32
f 9//33 35//34 41//35
f 10//36 36//37 42//38
f 11//39 37//40 38//41
f 15//3 14//11 3//10
f 15//3 13//2 14//11
f 13//2 2//4 14//11
f 17//5 16//8 6//19
f 17//5 13//2 16//8
f 13//2 1//1 16//8
f 19//6 18//14 4//13
f 19//6 15//3 18//14
f 15//3 3//10 18//14
f 21//7 20//17 5//16
f 21//7 19//6 20//17
f 19//6 4//13 20//17
f 16//8 22//20 6//19
f 16//8 21//7 22//20
f 21//7 5//16 22//20
f 24//9 23//26 11//39
f 24//9 17//5 23//26
f 17//5 6//19 23//26
f 26//12 25//22 7//27
f 26//12 14//11 25//22
f 14//11 2//4 25//22
f 28//15 27//23 8//30
f 28//15 18//14 27//23
f 18//14 3//10 27//23
f 30//18 29//24 9//33
f 30//18 20//17 29//24
f 20//17 4//13 29//24
f 32//21 31//25 10//36
f 32//21 22//20 31//25
f 22//20 5//16 31//25
f 25//22 33//28 7//27
f 25//22 24//9 33//28
f 24//9 11//39 33//28
f 27//23 34//31 8//30
f 27//23 26//12 34//31
f 26//12 7//27 34//31
f 29//24 35//34 9//33
f 29//24 28//15 35//34
f 28//15 8//30 35//34
f 31//25 36//37 10//36
f 31//25 30//18 36//37
f 30//18 9//33 36//37
f 23//26 37//40 11//39
f 23//26 32//21 37//40
f 32//21 10//36 37//40
f 39//29 38//41 12//42
f 39//29 33//28 38//41
f 33//28 11//39 38//41
f 40//32 39//29 12//42
f 40//32 34//31 39//29
f 34//31 7//27 39//29
f 41//35 40//32 12//42
f 41//35 35//34 40//32
f 35//34 8//30 40//32
f 42//38 41//35 12//42
f 42//38 36//37 41//35
f 36//37 9//33 41//35
f 38//41 42//38 12//42
f 38//41 37//40 42//38
f 37//40 10//36 42//38
