# This file uses centimeters as units for non-parametric coordinates.

g default
v 0.495468 -0.496962 -0.467855
v 0.495468 -0.496962 0.532145
v -0.504532 -0.496962 0.532145
v -0.504532 -0.496962 -0.467855
v 0.495468 0.503038 -0.467855
v 0.495468 0.503038 0.532145
v -0.504532 0.503038 0.532144
v -0.504532 0.503038 -0.467855
vt 0.000000 0.334353
vt 0.332314 0.333333
vt 0.333333 0.665647
vt 1.000000 0.001019
vt 0.998981 0.333333
vt 0.667686 0.000000
vt 1.000000 0.665647
vt 0.666667 0.334353
vt 0.334353 0.666667
vt 0.333333 0.334353
vt 0.666667 0.665647
vt 0.333333 0.332314
vt 0.001020 0.333333
vt 0.000000 0.001020
vt 0.333333 0.001019
vt 0.665647 0.000000
vt 0.666667 0.332314
vt 0.001019 0.666667
vt 0.667686 0.666667
vt 0.665647 0.333333
vt 0.332314 0.000000
vt 0.334353 0.333333
vt 0.998981 0.333333
vt 0.666667 0.332314
vn 0.000000 -1.000000 0.000000
vn 0.000000 -1.000000 0.000000
vn 0.000000 -1.000000 0.000000
vn 0.000000 1.000000 0.000000
vn 0.000000 1.000000 0.000000
vn 0.000000 1.000000 0.000000
vn 1.000000 -0.000000 0.000000
vn 1.000000 -0.000000 0.000000
vn 1.000000 -0.000000 0.000000
vn 0.000000 0.000000 1.000000
vn 0.000000 0.000000 1.000000
vn 0.000000 0.000000 1.000000
vn -1.000000 0.000000 0.000000
vn -1.000000 0.000000 0.000000
vn -1.000000 0.000000 0.000000
vn 0.000000 0.000000 -1.000000
vn 0.000000 0.000000 -1.000000
vn 0.000000 0.000000 -1.000000
vn 0.000000 -1.000000 0.000000
vn 0.000000 -1.000000 0.000000
vn 0.000000 -1.000000 0.000000
vn 0.000000 1.000000 0.000000
vn 0.000000 1.000000 0.000000
vn 0.000000 1.000000 0.000000
vn 1.000000 0.000000 0.000001
vn 1.000000 0.000000 0.000001
vn 1.000000 0.000000 0.000001
vn 0.000000 0.000000 1.000000
vn 0.000000 0.000000 1.000000
vn 0.000000 0.000000 1.000000
vn -1.000000 0.000000 0.000000
vn -1.000000 0.000000 0.000000
vn -1.000000 0.000000 0.000000
vn 0.000000 0.000000 -1.000000
vn 0.000000 0.000000 -1.000000
vn 0.000000 0.000000 -1.000000
s off
g Mesh
f 1/1/1 2/2/2 3/3/3
f 5/4/4 8/5/5 6/6/6
f 1/23/7 5/7/8 2/8/9
f 2/9/10 6/10/11 3/11/12
f 3/12/13 7/13/14 8/14/15
f 5/15/16 1/16/17 4/17/18
f 4/18/19 1/1/20 3/3/21
f 8/5/22 7/24/23 6/6/24
f 5/7/25 6/19/26 2/8/27
f 6/10/28 7/20/29 3/11/30
f 4/21/31 3/12/32 8/14/33
f 8/22/34 5/15/35 4/17/36
